<?xml version="1.0" encoding="UTF-8" standalone="no"?>
<svg
   xmlns:dc="http://purl.org/dc/elements/1.1/"
   xmlns:cc="http://creativecommons.org/ns#"
   xmlns:rdf="http://www.w3.org/1999/02/22-rdf-syntax-ns#"
   xmlns:svg="http://www.w3.org/2000/svg"
   xmlns="http://www.w3.org/2000/svg"
   xmlns:sodipodi="http://sodipodi.sourceforge.net/DTD/sodipodi-0.dtd"
   xmlns:inkscape="http://www.inkscape.org/namespaces/inkscape"
   version="1.1"
   id="Layer_1"
   x="0px"
   y="0px"
   width="100px"
   height="100px"
   viewBox="0 0 100 100"
   enable-background="new 0 0 100 100"
   xml:space="preserve"
   inkscape:version="0.48.2 r9819"
   sodipodi:docname="noun_project_1248.svg"><metadata
   id="metadata3043"><rdf:RDF><cc:Work
       rdf:about=""><dc:format>image/svg+xml</dc:format><dc:type
         rdf:resource="http://purl.org/dc/dcmitype/StillImage" /><dc:title></dc:title></cc:Work></rdf:RDF></metadata><defs
   id="defs3041" /><sodipodi:namedview
   pagecolor="#ffffff"
   bordercolor="#666666"
   borderopacity="1"
   objecttolerance="10"
   gridtolerance="10"
   guidetolerance="10"
   inkscape:pageopacity="0"
   inkscape:pageshadow="2"
   inkscape:window-width="1024"
   inkscape:window-height="695"
   id="namedview3039"
   showgrid="false"
   inkscape:zoom="2.4"
   inkscape:cx="50"
   inkscape:cy="50"
   inkscape:window-x="0"
   inkscape:window-y="25"
   inkscape:window-maximized="1"
   inkscape:current-layer="g3035" />
<g
   id="g3035">
	<path
   d="M50.658,17.943c0,1.934,1.568,3.502,3.502,3.502c1.936,0,3.503-1.568,3.503-3.502c0-1.935-1.567-3.503-3.503-3.503   C52.227,14.44,50.658,16.008,50.658,17.943L50.658,17.943z M40.404,26.125c0,1.284,1.097,2.325,2.45,2.325h11.208   c1.352,0,2.449-1.041,2.449-2.325c0-1.284-1.098-2.325-2.449-2.325H42.854C41.501,23.8,40.404,24.841,40.404,26.125L40.404,26.125z    M39.296,17.943c0,1.934,1.568,3.502,3.503,3.502s3.503-1.568,3.503-3.502c0-1.935-1.568-3.503-3.503-3.503   S39.296,16.008,39.296,17.943L39.296,17.943z M39.282,36.843v6.525c0,0.676,0.548,1.224,1.224,1.224h4.836   c0.151-1.559,1.466-2.778,3.065-2.778c0.422,0,0.825,0.085,1.191,0.239l3.133-3.61c0.535-0.617,1.461,0.186,0.925,0.803   l-3.04,3.502c0.474,0.487,0.788,1.13,0.857,1.844h4.91c0.676,0,1.225-0.548,1.225-1.224v-6.525c0-0.676-0.549-1.225-1.225-1.225   H40.506C39.83,35.618,39.282,36.167,39.282,36.843L39.282,36.843z M46.205,5.277c0,1.023,0.667,1.891,1.589,2.192V7.351   c0-0.428,0.335-0.645,0.645-0.645s0.644,0.217,0.644,0.645v0.161c0.997-0.254,1.734-1.159,1.734-2.234   c0-1.274-1.032-2.306-2.307-2.306C47.238,2.971,46.205,4.003,46.205,5.277L46.205,5.277z M27.612,59.116l-1.124,0.239l-1.251-5.887   c-0.277-1.307-1.561-2.141-2.867-1.863l-0.43,0.092c-1.306,0.277-2.139,1.561-1.861,2.866l1.251,5.888l-1.125,0.239l-2.534-2.813   l-2.533-2.814l1.17-3.602l1.17-3.601l0.765-0.163c-0.227-1.143-0.22-2.247-0.094-3.271c0.804-6.547,6.97-10.524,13.624-11.378   c0.448-0.588,1.155-0.968,1.951-0.968h9.514v-1.219h-3.831c-1.256,0-2.274-1.019-2.274-2.275v-3.858H35.78   c-0.676,0-1.225-0.549-1.225-1.225v-4.954c0-0.676,0.548-1.225,1.225-1.225h1.352v-4.858c0-1.256,1.019-2.274,2.274-2.274h8.389   V8.801c-1.643-0.333-2.878-1.783-2.878-3.523c0-1.986,1.609-3.595,3.595-3.595s3.596,1.609,3.596,3.595   c0,1.791-1.31,3.275-3.023,3.55v1.364H57.5c1.256,0,2.275,1.019,2.275,2.274v4.858h1.334c0.678,0,1.227,0.548,1.227,1.225v4.954   c0,0.676-0.549,1.225-1.227,1.225h-1.334v3.858c0,1.256-1.02,2.275-2.275,2.275h-3.801v1.219h9.512   c0.863,0,1.623,0.448,2.059,1.124c5.086-0.601,8.021-3.439,8.343-6.062c0.062-0.489,0.054-0.898-0.008-1.252l-0.651,0.139   l-2.533-2.814L67.886,20.4l1.169-3.601l1.172-3.601l1.125-0.239l1.25,5.887c0.277,1.306,1.562,2.139,2.867,1.861l0.43-0.091   c1.307-0.277,2.139-1.561,1.861-2.867l-1.25-5.887l1.123-0.239l2.533,2.814l2.535,2.814l-1.17,3.601l-1.172,3.601l-0.764,0.163   c0.227,1.142,0.219,2.246,0.094,3.271c-0.82,6.679-7.223,10.684-14.03,11.426V61.26c0,1.352-1.097,2.447-2.448,2.447h-0.473V89.25   h1.178v6.333h1.336v2.179H49.326v-2.179h1.402V89.25h1.521V63.707h-7.645V89.25h1.178v6.333h1.337v2.179H31.192v-2.179h1.403V89.25   h1.521V63.707h-0.393c-1.353,0-2.449-1.096-2.449-2.447V39.32c-4.289,0.89-6.754,3.46-7.048,5.852   c-0.061,0.49-0.053,0.898,0.008,1.252l0.652-0.138l2.533,2.814l2.534,2.812l-1.169,3.603L27.612,59.116L27.612,59.116z"
   id="path3037"
   style="fill:#ffcb2f;fill-opacity:1" />
</g>
</svg>